<svg xmlns="http://www.w3.org/2000/svg" viewBox="0 0 1200 700" role="img" aria-label="Volume tabung"><defs><marker id="arrow" markerWidth="10" markerHeight="10" refX="8" refY="3" orient="auto"><path d="M0,0 L0,6 L9,3 z" fill="#f97316"/></marker><filter id="shadow"><feDropShadow dx="0" dy="8" stdDeviation="8" flood-opacity=".16"/></filter></defs><rect width="1200" height="700" rx="34" fill="#f8fbff"/><rect x="24" y="24" width="1152" height="652" rx="28" fill="#fff" stroke="#cfe8f3" stroke-width="3"/><text x="60" y="72" font-family="Arial,sans-serif" font-size="38" font-weight="800" fill="#0b3558">Volume tabung</text><text x="60" y="108" font-family="Arial,sans-serif" font-size="22" fill="#587083">Bayangkan tumpukan lingkaran setinggi t.</text><g font-family="Arial,sans-serif"><g opacity=".95"><ellipse cx="470" cy="455" rx="210" ry="48" fill="#67e8f9" stroke="#0e7490" stroke-width="3"/><ellipse cx="470" cy="420" rx="210" ry="48" fill="#a5f3fc" stroke="#0e7490" stroke-width="3"/><ellipse cx="470" cy="385" rx="210" ry="48" fill="#67e8f9" stroke="#0e7490" stroke-width="3"/><ellipse cx="470" cy="350" rx="210" ry="48" fill="#a5f3fc" stroke="#0e7490" stroke-width="3"/><ellipse cx="470" cy="315" rx="210" ry="48" fill="#67e8f9" stroke="#0e7490" stroke-width="3"/><ellipse cx="470" cy="280" rx="210" ry="48" fill="#a5f3fc" stroke="#0e7490" stroke-width="3"/><ellipse cx="470" cy="245" rx="210" ry="48" fill="#67e8f9" stroke="#0e7490" stroke-width="3"/><ellipse cx="470" cy="210" rx="210" ry="48" fill="#a5f3fc" stroke="#0e7490" stroke-width="3"/></g><line x1="720" y1="210" x2="720" y2="470" stroke="#ef4444" stroke-width="5" marker-end="url(#arrow)"/><text x="745" y="350" font-size="30" fill="#ef4444">tinggi t</text><line x1="470" y1="455" x2="680" y2="455" stroke="#f59e0b" stroke-width="6"/><text x="565" y="438" font-size="30">r</text><rect x="825" y="215" width="245" height="240" rx="24" fill="#eff6ff"/><text x="947" y="280" text-anchor="middle" font-size="25">luas alas</text><text x="947" y="330" text-anchor="middle" font-size="34" font-weight="800">πr²</text><text x="947" y="380" text-anchor="middle" font-size="26">× tinggi</text><text x="947" y="430" text-anchor="middle" font-size="34" font-weight="800">t</text></g><rect x="310" y="617" width="580" height="46" rx="23" fill="#0b3558"/><text x="600" y="649" text-anchor="middle" font-family="Arial,sans-serif" font-size="24" font-weight="700" fill="#fff">V = πr²t</text></svg>