<svg xmlns="http://www.w3.org/2000/svg" viewBox="0 0 1200 700" role="img" aria-label="Populasi dan sampel"><defs><marker id="arrow" markerWidth="10" markerHeight="10" refX="8" refY="3" orient="auto"><path d="M0,0 L0,6 L9,3 z" fill="#f97316"/></marker><filter id="shadow"><feDropShadow dx="0" dy="8" stdDeviation="8" flood-opacity=".16"/></filter></defs><rect width="1200" height="700" rx="34" fill="#f8fbff"/><rect x="24" y="24" width="1152" height="652" rx="28" fill="#fff" stroke="#cfe8f3" stroke-width="3"/><text x="60" y="72" font-family="Arial,sans-serif" font-size="38" font-weight="800" fill="#0b3558">Populasi dan sampel</text><text x="60" y="108" font-family="Arial,sans-serif" font-size="22" fill="#587083">Sampel harus cukup, acak, dan mewakili.</text><g font-family="Arial,sans-serif"><g><circle cx="95" cy="180" r="18" fill="#0e7490"/><circle cx="150" cy="180" r="18" fill="#f59e0b"/><circle cx="205" cy="180" r="18" fill="#f97316"/><circle cx="260" cy="180" r="18" fill="#10b981"/><circle cx="315" cy="180" r="18" fill="#0e7490"/><circle cx="370" cy="180" r="18" fill="#f59e0b"/><circle cx="425" cy="180" r="18" fill="#f97316"/><circle cx="480" cy="180" r="18" fill="#10b981"/><circle cx="535" cy="180" r="18" fill="#0e7490"/><circle cx="590" cy="180" r="18" fill="#f59e0b"/><circle cx="95" cy="255" r="18" fill="#f97316"/><circle cx="150" cy="255" r="18" fill="#10b981"/><circle cx="205" cy="255" r="18" fill="#0e7490"/><circle cx="260" cy="255" r="18" fill="#f59e0b"/><circle cx="315" cy="255" r="18" fill="#f97316"/><circle cx="370" cy="255" r="18" fill="#10b981"/><circle cx="425" cy="255" r="18" fill="#0e7490"/><circle cx="480" cy="255" r="18" fill="#f59e0b"/><circle cx="535" cy="255" r="18" fill="#f97316"/><circle cx="590" cy="255" r="18" fill="#10b981"/><circle cx="95" cy="330" r="18" fill="#0e7490"/><circle cx="150" cy="330" r="18" fill="#f59e0b"/><circle cx="205" cy="330" r="18" fill="#f97316"/><circle cx="260" cy="330" r="18" fill="#10b981"/><circle cx="315" cy="330" r="18" fill="#0e7490"/><circle cx="370" cy="330" r="18" fill="#f59e0b"/><circle cx="425" cy="330" r="18" fill="#f97316"/><circle cx="480" cy="330" r="18" fill="#10b981"/><circle cx="535" cy="330" r="18" fill="#0e7490"/><circle cx="590" cy="330" r="18" fill="#f59e0b"/><circle cx="95" cy="405" r="18" fill="#f97316"/><circle cx="150" cy="405" r="18" fill="#10b981"/><circle cx="205" cy="405" r="18" fill="#0e7490"/><circle cx="260" cy="405" r="18" fill="#f59e0b"/><circle cx="315" cy="405" r="18" fill="#f97316"/><circle cx="370" cy="405" r="18" fill="#10b981"/><circle cx="425" cy="405" r="18" fill="#0e7490"/><circle cx="480" cy="405" r="18" fill="#f59e0b"/><circle cx="535" cy="405" r="18" fill="#f97316"/><circle cx="590" cy="405" r="18" fill="#10b981"/></g><rect x="70" y="145" width="600" height="350" rx="28" fill="none" stroke="#0b3558" stroke-width="4"/><text x="370" y="540" text-anchor="middle" font-size="28" font-weight="800">POPULASI</text><path d="M700 320 H810" stroke="#f97316" stroke-width="7" marker-end="url(#arrow)"/><g><circle cx="885" cy="245" r="22" fill="#0e7490"/><circle cx="940" cy="245" r="22" fill="#f59e0b"/><circle cx="995" cy="245" r="22" fill="#f97316"/><circle cx="1050" cy="245" r="22" fill="#10b981"/><circle cx="885" cy="330" r="22" fill="#0e7490"/><circle cx="940" cy="330" r="22" fill="#f59e0b"/><circle cx="995" cy="330" r="22" fill="#f97316"/><circle cx="1050" cy="330" r="22" fill="#10b981"/></g><rect x="845" y="190" width="290" height="235" rx="28" fill="none" stroke="#10b981" stroke-width="5"/><text x="990" y="475" text-anchor="middle" font-size="28" font-weight="800">SAMPEL MEWAKILI</text></g><rect x="310" y="617" width="580" height="46" rx="23" fill="#0b3558"/><text x="600" y="649" text-anchor="middle" font-family="Arial,sans-serif" font-size="24" font-weight="700" fill="#fff">acak + cukup + mewakili → simpulan lebih adil</text></svg>